<svg xmlns="http://www.w3.org/2000/svg" xml:space="preserve" id="Icons" x="0" y="0" version="1.1" viewBox="0 0 32 32"><style>.st1{fill:#fff;stroke:#000;stroke-width:2;stroke-linejoin:round}</style><path fill="#fff" d="M19 9h6.6v5H19z"/><path d="M19 3v6h6l-6-6H7v26h18v-3.7" class="st1"/><path d="M28.8 17.2c-1.1.2-2 0-2.4-.7-.4-.7-.1-1.7.6-2.5-.9-.9-1.9-1.5-3.1-1.8-.3 1-1 1.8-1.8 1.8s-1.5-.7-1.8-1.8c-1.2.3-2.3.9-3.1 1.8.7.8 1 1.8.6 2.5s-1.4.9-2.4.7c-.3.6-.4 1.2-.4 1.8s.1 1.2.2 1.8c1.1-.2 2 0 2.4.7s.1 1.7-.6 2.5c.9.9 1.9 1.5 3.1 1.8.3-1 1-1.8 1.8-1.8s1.5.7 1.8 1.8c1.2-.3 2.3-.9 3.1-1.8-.7-.8-1-1.8-.6-2.5s1.4-.9 2.4-.7c.2-.6.2-1.2.2-1.8s.1-1.2 0-1.8z" class="st1"/><circle cx="22" cy="19" r="2" class="st1"/><path fill="none" stroke="#000" stroke-linecap="round" stroke-linejoin="round" stroke-miterlimit="10" stroke-width="2" d="M25 9v3"/></svg>